<svg xmlns="http://www.w3.org/2000/svg" viewBox="0 0 760 350">
  <style>text { font-family: Inter, -apple-system, BlinkMacSystemFont, 'Segoe UI', system-ui, sans-serif; }</style>
  <rect width="760" height="350" rx="12" fill="#fafbfc" stroke="#e2e8f0" stroke-width="1"/>
  <text x="40" y="40" font-size="18" font-weight="700" fill="#1a1a2e">Developer Experience</text>
  <text x="258" y="40" font-size="18" font-weight="400" fill="#94a3b8">lines of code per task (fewer = better)</text>
  <rect x="40" y="62" width="12" height="12" rx="3" fill="#FF6154"/>
  <text x="58" y="73" font-size="11" font-weight="600" fill="#FF6154">pop</text>
  <rect x="100" y="62" width="12" height="12" rx="3" fill="#38bdf8"/>
  <text x="118" y="73" font-size="11" font-weight="500" fill="#64748b">smolagents</text>
  <rect x="210" y="62" width="12" height="12" rx="3" fill="#cbd5e1"/>
  <text x="228" y="73" font-size="11" font-weight="500" fill="#64748b">LangChain</text>
  <line x1="200" y1="95" x2="200" y2="300" stroke="#f1f5f9" stroke-width="1"/>
  <text x="200" y="315" font-size="9" font-weight="500" fill="#94a3b8" text-anchor="middle">0</text>
  <line x1="325" y1="95" x2="325" y2="300" stroke="#f1f5f9" stroke-width="1"/>
  <text x="325" y="315" font-size="9" font-weight="500" fill="#94a3b8" text-anchor="middle">10</text>
  <line x1="451" y1="95" x2="451" y2="300" stroke="#f1f5f9" stroke-width="1"/>
  <text x="451" y="315" font-size="9" font-weight="500" fill="#94a3b8" text-anchor="middle">20</text>
  <line x1="577" y1="95" x2="577" y2="300" stroke="#f1f5f9" stroke-width="1"/>
  <text x="577" y="315" font-size="9" font-weight="500" fill="#94a3b8" text-anchor="middle">30</text>
  <text x="40" y="120" font-size="13" font-weight="600" fill="#1a1a2e">Hello World</text>
  <text x="40" y="133" font-size="10" font-weight="400" fill="#94a3b8">agent + one tool</text>
  <rect x="200" y="106" width="125" height="13" rx="4" fill="#FF6154"/>
  <text x="331" y="118" font-size="10" font-weight="700" fill="#FF6154">10</text>
  <rect x="200" y="122" width="138" height="13" rx="4" fill="#38bdf8"/>
  <text x="344" y="134" font-size="10" font-weight="600" fill="#0284c7">11</text>
  <rect x="200" y="138" width="138" height="13" rx="4" fill="#cbd5e1"/>
  <text x="344" y="150" font-size="10" font-weight="500" fill="#94a3b8">11</text>
  <text x="40" y="185" font-size="13" font-weight="600" fill="#1a1a2e">Web Search</text>
  <text x="40" y="198" font-size="10" font-weight="400" fill="#94a3b8">with built-in tools</text>
  <rect x="200" y="171" width="50" height="13" rx="4" fill="#FF6154"/>
  <text x="256" y="183" font-size="10" font-weight="700" fill="#FF6154">4</text>
  <rect x="200" y="187" width="50" height="13" rx="4" fill="#38bdf8"/>
  <text x="256" y="199" font-size="10" font-weight="600" fill="#0284c7">4</text>
  <rect x="200" y="203" width="150" height="13" rx="4" fill="#cbd5e1"/>
  <text x="356" y="215" font-size="10" font-weight="500" fill="#94a3b8">12</text>
  <text x="40" y="250" font-size="13" font-weight="600" fill="#1a1a2e">Multi-Agent</text>
  <text x="40" y="263" font-size="10" font-weight="400" fill="#94a3b8">two-agent handoff</text>
  <rect x="200" y="236" width="62" height="13" rx="4" fill="#FF6154"/>
  <text x="268" y="248" font-size="10" font-weight="700" fill="#FF6154">5</text>
  <rect x="200" y="252" width="150" height="13" rx="4" fill="#38bdf8"/>
  <text x="356" y="264" font-size="10" font-weight="600" fill="#0284c7">12</text>
  <rect x="200" y="268" width="440" height="13" rx="4" fill="#cbd5e1"/>
  <text x="646" y="280" font-size="10" font-weight="500" fill="#94a3b8">35</text>
  <text x="40" y="335" font-size="10" font-weight="500" fill="#94a3b8">pop uses pop.tools.WebSearch() built-in + Agent(workers=[...]) shorthand</text>
</svg>
